<?xml version="1.0" encoding="UTF-8"?>
<svg id="Layer_2" data-name="Layer 2" xmlns="http://www.w3.org/2000/svg" viewBox="0 0 218.51 38">
  <defs>
    <style>
      .cls-1 {
        fill: #f8633f;
        fill-rule: evenodd;
      }

      .cls-2 {
        fill: #fff;
      }
    </style>
  </defs>
  <g id="Layer_1-2" data-name="Layer 1">
    <g>
      <path class="cls-1" d="M14.77,0c-3.22,0-6.19,1.72-7.79,4.5L1.21,14.5c-1.61,2.78-1.61,6.22,0,9l5.77,10c1.61,2.78,4.58,4.5,7.79,4.5h11.55c3.22,0,6.19-1.72,7.79-4.5l5.77-10c1.61-2.78,1.61-6.22,0-9l-5.77-10c-1.61-2.78-4.58-4.5-7.79-4.5h-11.55ZM26.32,6h-7.22c-1.15,0-1.88,1.25-1.3,2.25,1.78,3.08,3.57,6.17,5.35,9.25.54.93.54,2.07,0,3-1.78,3.09-3.57,6.17-5.35,9.25-.58,1,.14,2.25,1.3,2.25h7.22c1.07,0,2.06-.57,2.6-1.5l5.77-10c.54-.93.54-2.07,0-3l-5.77-10c-.54-.93-1.53-1.5-2.6-1.5Z"/>
      <g>
        <path class="cls-2" d="M60.12,29.6c-3.05,0-5.57-1-7.57-3.01-2-2-3-4.55-3-7.62s1-5.62,3.01-7.6c2-1.98,4.53-2.97,7.57-2.97.93,0,1.84.12,2.73.37.89.24,1.71.59,2.46,1.02.75.44,1.56,1.09,2.43,1.96l-2.99,3.11c-.58-.62-1.09-1.06-1.5-1.32-.42-.26-.89-.46-1.41-.6s-1.09-.21-1.69-.21c-1.75,0-3.21.58-4.38,1.73-1.17,1.15-1.75,2.66-1.75,4.52s.58,3.37,1.74,4.55c1.16,1.18,2.62,1.77,4.38,1.77.62,0,1.22-.09,1.79-.26.57-.17,1.1-.42,1.6-.74.49-.32,1.02-.8,1.57-1.44l3.06,3.11c-.91,1-1.77,1.73-2.56,2.19s-1.66.82-2.58,1.08-1.89.39-2.89.39Z"/>
        <path class="cls-2" d="M68.7,29.11l7.75-20.22h4.02l7.74,20.22h-4.87l-4.11-12.13-.76-2.56h-.1l-.76,2.54-4.15,12.14h-4.76ZM72.44,25.18l1.2-3.25h9.19l1.26,3.25h-11.65Z"/>
        <path class="cls-2" d="M96.68,29.11V8.89h5.49l5.82,14.51h.1l5.76-14.51h5.48v20.22h-4.32v-9.87l.1-3.23h-.1l-5.27,13.1h-3.46l-5.25-13.1h-.1l.1,3.23v9.87h-4.35Z"/>
        <path class="cls-2" d="M127.38,29.6c-1.58,0-2.85-.43-3.8-1.29-.95-.86-1.43-1.99-1.43-3.4,0-1.5.57-2.68,1.72-3.54,1.15-.87,2.64-1.3,4.49-1.3.73,0,1.43.07,2.08.21s1.21.32,1.68.54v-.85c0-.83-.28-1.48-.85-1.96-.57-.47-1.34-.71-2.33-.71-.6,0-1.11.06-1.52.18-.41.12-.81.29-1.2.5-.39.21-.87.57-1.44,1.07l-2.16-2.33c1.02-.79,1.82-1.34,2.41-1.65.59-.31,1.26-.55,2-.72s1.54-.25,2.39-.25c2.21,0,3.92.51,5.12,1.53,1.2,1.02,1.81,2.48,1.81,4.38v9.09h-4.22v-3.06l.99,1.3h-1.09c-.41.65-1.03,1.19-1.86,1.62-.82.43-1.76.64-2.8.64ZM128.72,26.75c1,0,1.81-.35,2.45-1.06.64-.71.95-1.66.95-2.85-.37-.2-.79-.36-1.28-.48s-1.01-.18-1.57-.18c-.9,0-1.64.2-2.21.59-.57.4-.85.99-.85,1.79,0,.7.23,1.24.69,1.62s1.07.57,1.82.57Z"/>
        <path class="cls-2" d="M139.62,14.6h4.22v2.68l-.44-.58h.54c.47-.81,1.15-1.44,2.04-1.91.89-.46,1.8-.69,2.73-.69,1.61,0,2.88.49,3.82,1.47.94.98,1.4,2.29,1.4,3.94v9.6h-4.42v-8.57c0-.92-.22-1.62-.67-2.1-.45-.48-1.1-.72-1.96-.72s-1.5.31-2.04.93-.81,1.39-.81,2.3v8.16h-4.42v-14.51Z"/>
        <path class="cls-2" d="M161.46,29.6c-1.58,0-2.85-.43-3.8-1.29-.95-.86-1.43-1.99-1.43-3.4,0-1.5.57-2.68,1.72-3.54,1.15-.87,2.64-1.3,4.49-1.3.73,0,1.43.07,2.08.21s1.21.32,1.68.54v-.85c0-.83-.28-1.48-.85-1.96-.57-.47-1.34-.71-2.33-.71-.6,0-1.11.06-1.52.18-.41.12-.81.29-1.2.5-.39.21-.87.57-1.44,1.07l-2.16-2.33c1.02-.79,1.82-1.34,2.41-1.65.59-.31,1.26-.55,2-.72s1.54-.25,2.39-.25c2.21,0,3.92.51,5.12,1.53,1.2,1.02,1.81,2.48,1.81,4.38v9.09h-4.22v-3.06l.99,1.3h-1.09c-.41.65-1.03,1.19-1.86,1.62-.82.43-1.76.64-2.8.64ZM162.8,26.75c1,0,1.81-.35,2.45-1.06.64-.71.95-1.66.95-2.85-.37-.2-.79-.36-1.28-.48s-1.01-.18-1.57-.18c-.9,0-1.64.2-2.21.59-.57.4-.85.99-.85,1.79,0,.7.23,1.24.69,1.62s1.07.57,1.82.57Z"/>
        <path class="cls-2" d="M180.45,35.7c-1.07,0-2.03-.13-2.86-.37-.83-.25-1.58-.62-2.24-1.1-.66-.48-1.36-1.31-2.12-2.46l3.36-1.72c.47.73.88,1.24,1.21,1.51.34.27.73.48,1.16.62.43.14.89.21,1.38.21,1.23,0,2.17-.34,2.82-1.03.65-.69.97-1.64.97-2.85v-1.41h-.1c-.54.68-1.2,1.2-1.99,1.56s-1.66.54-2.61.54c-1.95,0-3.55-.68-4.79-2.03-1.25-1.36-1.87-3.18-1.87-5.48s.65-4.1,1.96-5.49c1.3-1.39,2.94-2.09,4.91-2.09.93,0,1.79.18,2.58.55.79.37,1.42.89,1.9,1.55h1.09l-.99,1.06v-2.67h4.22v13.64c0,2.43-.71,4.28-2.13,5.56s-3.37,1.91-5.86,1.91ZM180.64,25.56c1.03,0,1.87-.36,2.53-1.09.66-.73,1-1.69,1-2.87s-.33-2.12-1-2.84c-.66-.71-1.51-1.07-2.53-1.07s-1.88.36-2.55,1.07c-.67.72-1.01,1.67-1.01,2.85s.33,2.2,1,2.9c.66.7,1.52,1.05,2.56,1.05Z"/>
        <path class="cls-2" d="M198.6,29.6c-2.32,0-4.17-.73-5.57-2.19-1.4-1.46-2.1-3.31-2.1-5.56s.71-4.09,2.12-5.56,3.24-2.2,5.49-2.2c2.11,0,3.85.66,5.22,1.98,1.37,1.32,2.05,3.02,2.05,5.09v1.52h-12.76v-2.2h8.7c-.07-.88-.38-1.6-.95-2.15-.57-.55-1.33-.83-2.27-.83-1.04,0-1.86.37-2.48,1.11s-.92,1.76-.92,3.07c0,1.42.36,2.54,1.09,3.37.72.82,1.69,1.23,2.89,1.23.54,0,1.01-.08,1.43-.23.42-.15.8-.35,1.13-.59.33-.24.72-.64,1.16-1.19l2.58,2c-.68.89-1.33,1.56-1.96,1.99s-1.32.76-2.07.98-1.68.33-2.79.33Z"/>
        <path class="cls-2" d="M208.34,29.11v-14.51h4.22v2.78l-.44-.56h.54c.27-.8.78-1.45,1.53-1.96.75-.5,1.55-.76,2.41-.76.26,0,.53.02.8.07.27.05.64.15,1.1.31v4.09c-.6-.23-1.08-.38-1.43-.46s-.69-.12-1.01-.12c-.98,0-1.77.35-2.39,1.04s-.92,1.58-.92,2.68v7.4h-4.42Z"/>
      </g>
    </g>
  </g>
</svg>